<?xml version="1.0" standalone="no"?>
<!DOCTYPE svg PUBLIC "-//W3C//DTD SVG 20010904//EN"
 "http://www.w3.org/TR/2001/REC-SVG-20010904/DTD/svg10.dtd">
<svg version="1.0" xmlns="http://www.w3.org/2000/svg"
 width="400.000000pt" height="400.000000pt" viewBox="0 0 400.000000 400.000000"
 preserveAspectRatio="xMidYMid meet">
<metadata>
Created by potrace 1.14, written by Peter Selinger 2001-2017
</metadata>
<g transform="translate(0.000000,400.000000) scale(0.100000,-0.100000)"
fill="#000000" stroke="none">
<path d="M1662 3270 c-23 -10 -52 -29 -65 -42 -40 -41 -59 -47 -118 -36 -76
14 -129 5 -205 -33 -55 -28 -70 -42 -87 -77 -17 -35 -28 -44 -62 -53 -22 -6
-45 -15 -51 -20 -6 -5 -14 -6 -18 -2 -3 4 -27 -13 -51 -37 -30 -30 -47 -55
-51 -80 -11 -66 -25 -111 -33 -106 -4 3 -25 -12 -45 -33 -53 -54 -64 -127 -31
-200 l17 -39 -37 -36 c-21 -20 -35 -40 -31 -43 3 -3 1 -12 -5 -20 -27 -32 8
-173 60 -236 11 -14 12 -22 2 -40 -20 -38 -5 -109 45 -224 8 -18 19 -35 24
-38 6 -3 10 -17 10 -30 0 -27 30 -85 44 -85 11 0 57 -51 90 -100 16 -23 25
-54 28 -92 4 -56 4 -56 -14 -33 -10 13 -18 28 -18 33 0 13 -72 78 -109 96 -38
20 -70 20 -78 1 -7 -19 20 -41 59 -49 42 -8 103 -70 133 -134 14 -31 33 -69
41 -84 8 -14 14 -34 14 -43 0 -9 8 -29 19 -43 10 -15 24 -44 31 -66 11 -34 10
-40 -6 -56 -18 -17 -41 -24 -71 -21 -6 0 -26 13 -45 28 l-33 27 25 -28 c36
-41 64 -49 107 -31 19 8 39 15 43 15 9 0 100 -132 100 -144 0 -4 28 -44 63
-89 62 -82 152 -177 217 -230 42 -34 232 -157 243 -157 4 0 20 -8 34 -17 24
-16 78 -39 108 -46 6 -2 20 -8 31 -15 21 -11 70 -25 153 -43 77 -16 213 5 263
41 15 11 32 20 37 20 29 0 202 199 268 310 69 116 164 336 177 415 3 17 8 41
11 55 3 14 9 49 12 78 3 29 10 55 14 58 5 3 9 10 9 15 0 6 -4 8 -8 5 -13 -8
-23 330 -11 361 11 31 49 64 67 58 13 -5 15 8 6 53 -4 22 -11 29 -21 25 -12
-5 -14 -1 -8 18 5 13 8 49 7 79 -1 35 4 60 13 70 13 14 20 110 15 194 0 11 13
38 30 62 24 34 30 52 30 93 0 46 -25 121 -42 129 -5 2 -8 10 -8 17 0 8 -13 23
-28 34 -27 19 -28 23 -25 85 6 107 -46 191 -133 215 -20 5 -30 16 -36 39 -5
17 -25 45 -46 63 -37 31 -135 69 -179 69 -13 0 -23 6 -23 13 0 6 -17 31 -38
55 -28 32 -56 51 -110 73 -81 32 -105 35 -141 15 -21 -11 -30 -11 -60 1 -81
34 -183 42 -245 18 -38 -15 -51 -16 -75 -5 -16 6 -34 9 -40 6 -5 -4 -12 -2
-16 4 -10 17 -97 11 -143 -10z m878 -711 c35 -5 70 -15 77 -21 7 -5 29 -8 49
-6 34 4 38 2 72 -51 46 -73 68 -159 76 -306 9 -152 13 -206 32 -385 29 -263
25 -375 -17 -538 -23 -86 -48 -124 -99 -147 -31 -14 -44 -15 -81 -5 -24 6 -53
17 -64 24 -11 7 -33 16 -50 20 -26 6 -28 6 -12 -6 16 -12 16 -13 -5 -14 -13 0
-45 -2 -73 -4 -42 -3 -50 -1 -49 13 1 13 -6 17 -29 17 -28 0 -29 1 -15 18 24
26 40 89 33 122 -9 42 -25 47 -18 6 9 -58 -2 -82 -53 -106 -36 -18 -57 -21
-105 -18 -54 4 -64 8 -86 36 -13 18 -29 32 -34 32 -25 0 6 -92 34 -103 8 -3
14 -17 15 -31 0 -26 -2 -26 -77 -26 -42 -1 -107 -8 -146 -16 -38 -8 -77 -15
-86 -15 -9 0 -35 -20 -59 -45 -34 -36 -48 -44 -78 -44 -103 0 -218 66 -307
176 -21 27 -28 40 -16 29 27 -23 27 -20 -12 54 -43 81 -86 220 -103 334 -22
142 -31 193 -44 257 -15 71 -15 87 -3 256 10 129 14 149 48 225 20 46 46 90
57 97 11 8 31 27 45 42 13 15 53 40 88 55 57 24 71 26 112 18 37 -7 61 -5 106
8 48 15 88 17 251 12 160 -4 199 -2 223 11 31 16 77 11 122 -14 39 -21 120 -8
145 23 24 30 41 32 136 16z m392 -661 c-7 -7 -12 -8 -12 -2 0 14 12 26 19 19
2 -3 -1 -11 -7 -17z m-1712 -487 c-1 -13 -29 45 -29 59 0 8 6 0 14 -19 8 -18
15 -36 15 -40z m29 -61 c0 -9 -6 -4 -14 10 -19 33 -19 49 0 24 8 -10 14 -26
14 -34z m1254 -292 c11 -8 20 -33 24 -65 7 -64 -14 -127 -55 -165 -40 -37 -66
-40 -99 -12 -38 33 -61 38 -156 31 -80 -5 -81 -6 -115 -46 -27 -33 -40 -41
-67 -41 -50 0 -103 26 -120 60 -9 17 -20 30 -24 30 -14 0 -43 84 -39 111 3 22
6 24 53 19 28 -3 124 -5 216 -4 154 1 170 3 245 29 43 15 88 34 99 42 37 27
-149 6 -214 -24 -41 -19 -62 -23 -90 -18 -20 4 -79 7 -131 7 -78 -1 -90 1 -70
10 14 6 84 13 155 14 80 2 149 8 180 18 62 18 185 21 208 4z m-586 -54 c-3 -3
-12 -4 -19 -1 -8 3 -5 6 6 6 11 1 17 -2 13 -5z"/>
<path d="M1574 2077 c-73 -25 -128 -58 -161 -99 -18 -22 -33 -44 -33 -48 0 -4
45 15 100 42 80 41 114 52 176 59 72 8 167 1 233 -17 47 -14 16 18 -43 43 -73
30 -209 40 -272 20z"/>
<path d="M2357 1983 c-15 -14 -4 -21 68 -42 74 -22 92 -36 58 -44 -14 -3 -12
-6 10 -15 35 -15 223 -16 232 -2 3 6 19 10 36 10 16 0 29 4 29 9 0 13 -47 26
-160 46 -52 9 -120 23 -151 31 -59 15 -111 18 -122 7z"/>
<path d="M2536 1809 c-21 -5 -51 -20 -67 -33 -15 -13 -32 -26 -36 -28 -5 -1
-26 -24 -47 -50 -21 -26 -42 -45 -47 -42 -5 3 -9 -4 -9 -15 0 -27 21 -27 38
-1 17 27 27 25 42 -9 15 -38 29 -42 97 -34 41 4 64 14 88 35 38 33 60 37 52 9
-10 -38 23 -10 34 30 10 30 9 48 0 80 -7 23 -10 43 -7 46 3 4 30 -10 61 -30
30 -21 57 -37 60 -37 13 0 3 29 -17 47 -43 39 -150 53 -242 32z m-41 -68 c-3
-6 -14 -11 -23 -11 -15 1 -15 2 2 15 21 16 32 13 21 -4z"/>
<path d="M1595 1712 c-53 -18 -145 -98 -145 -127 0 -21 3 -20 43 20 19 19 39
35 45 35 5 0 12 -19 14 -43 3 -24 13 -55 23 -70 16 -25 22 -27 90 -27 73 0
106 14 141 59 9 12 12 11 18 -4 3 -10 1 -24 -5 -31 -8 -10 -8 -14 -1 -14 18 0
35 41 41 100 l6 55 48 -47 c26 -26 47 -42 47 -34 0 26 -47 82 -95 114 -47 30
-55 32 -135 31 -49 -1 -106 -8 -135 -17z m79 -37 c7 -18 -21 -47 -43 -43 -23
5 -27 45 -4 51 33 8 41 7 47 -8z"/>
<path d="M2433 1153 c9 -2 25 -2 35 0 9 3 1 5 -18 5 -19 0 -27 -2 -17 -5z"/>
</g>
</svg>
